<svg width="198" height="48" viewBox="0 0 198 48" fill="none" xmlns="http://www.w3.org/2000/svg">
<g clip-path="url(#clip0_450_4719)">
<path fill-rule="evenodd" clip-rule="evenodd" d="M13.0227 26C12.7046 26 12.3677 26.0236 12.0118 26.0697C11.6559 26.1159 11.3301 26.2103 11.0343 26.3566C10.7384 26.5028 10.4927 26.7019 10.2958 26.9539C10.099 27.207 10 27.5411 10 27.9539C10 28.7199 10.2424 29.2531 10.7273 29.5523C11.2122 29.8504 11.8705 30 12.7046 30C13.2051 30 13.6477 29.9887 14.0347 29.9651C14.4206 29.9426 14.742 29.901 15 29.8391V26.2767C14.8488 26.1991 14.6019 26.135 14.2616 26.081C13.9202 26.027 13.5076 26 13.0227 26Z" fill="white"/>
<path fill-rule="evenodd" clip-rule="evenodd" d="M38.5702 31.5418C38.2279 30.9727 37.8317 30.3917 37.3841 29.7988C36.9353 29.2058 36.4674 28.6368 35.9779 28.0915C35.4884 27.5475 34.9905 27.0476 34.4854 26.5931C33.9804 26.1373 33.4992 25.7555 33.042 25.4465V31.5418H30.7681V13.0114L33.042 12.6224V24.1783C33.4334 23.7882 33.8655 23.3587 34.3394 22.8862C34.8121 22.415 35.2765 21.9354 35.7325 21.4486C36.1897 20.9607 36.6218 20.493 37.0287 20.0456C37.4368 19.5994 37.7875 19.2045 38.0807 18.8633H40.7472C40.3714 19.2701 39.9645 19.7163 39.5241 20.2043C39.0836 20.6922 38.6276 21.1838 38.1549 21.6789C37.6809 22.1752 37.2046 22.6715 36.7235 23.1666C36.2424 23.6629 35.79 24.1306 35.3663 24.5685C35.8546 24.9431 36.3728 25.406 36.9198 25.9584C37.4655 26.5107 38.0029 27.1085 38.5331 27.7503C39.0633 28.3922 39.5648 29.0424 40.0375 29.701C40.5103 30.3595 40.91 30.9727 41.2367 31.5418H38.5702ZM27.0627 30.9323C26.1902 31.5336 24.9479 31.8342 23.3334 31.8342C22.2084 31.8342 21.3275 31.7412 20.692 31.5539C20.0553 31.3677 19.6232 31.2246 19.3958 31.1267L19.8111 29.1773C20.0708 29.2751 20.4873 29.4207 21.0582 29.6163C21.6291 29.8108 22.3879 29.9086 23.3334 29.9086C24.2621 29.9086 24.9515 29.7869 25.4003 29.5424C25.8479 29.299 26.0729 28.9089 26.0729 28.372C26.0729 27.8196 25.8527 27.3806 25.4123 27.056C24.9718 26.7303 24.2466 26.3653 23.2352 25.9584C22.7457 25.764 22.2766 25.5647 21.829 25.3607C21.3802 25.1579 20.9924 24.9181 20.6668 24.6425C20.3413 24.3657 20.0804 24.0329 19.8841 23.6427C19.689 23.2526 19.5909 22.773 19.5909 22.2039C19.5909 21.0824 20.0062 20.1924 20.838 19.5339C21.6698 18.8753 22.8032 18.546 24.2382 18.546C24.596 18.546 24.9551 18.5675 25.3141 18.6081C25.6732 18.6486 26.0071 18.6963 26.3171 18.7536C26.6271 18.8109 26.8999 18.8717 27.1357 18.9373C27.3727 19.0018 27.5558 19.059 27.6862 19.1079L27.2709 21.0574C27.0256 20.9285 26.6426 20.7937 26.122 20.6553C25.599 20.5181 24.9718 20.4489 24.2382 20.4489C23.6027 20.4489 23.0473 20.5742 22.5746 20.8259C22.1018 21.0777 21.8649 21.4726 21.8649 22.0083C21.8649 22.285 21.9175 22.5296 22.024 22.7408C22.1306 22.952 22.2933 23.1428 22.5136 23.3134C22.7338 23.4841 23.0066 23.6427 23.3334 23.7883C23.6589 23.935 24.0503 24.0889 24.5075 24.2524C25.1095 24.4803 25.648 24.7034 26.122 24.9229C26.5935 25.1424 26.9981 25.3977 27.332 25.69C27.6659 25.9823 27.9232 26.3366 28.1027 26.7506C28.2811 27.1658 28.372 27.674 28.372 28.2753C28.372 29.4457 27.9352 30.331 27.0627 30.9323ZM17.1206 31.3224C16.9255 31.3558 16.6527 31.3999 16.302 31.4572C15.9513 31.5145 15.5552 31.567 15.1147 31.6159C14.6755 31.6636 14.198 31.7089 13.6845 31.7495C13.1711 31.7901 12.6612 31.8104 12.1562 31.8104C11.4381 31.8104 10.7774 31.7376 10.1742 31.5908C9.57103 31.4441 9.04922 31.2126 8.60878 30.8953C8.16955 30.5791 7.82725 30.1604 7.5819 29.6402C7.33775 29.12 7.21448 28.4937 7.21448 27.7635C7.21448 27.0644 7.3569 26.4631 7.64294 25.9584C7.92779 25.455 8.31556 25.0481 8.80506 24.7391C9.29457 24.4313 9.86426 24.2035 10.5177 24.0567C11.1688 23.9112 11.8534 23.8372 12.5715 23.8372C12.8001 23.8372 13.0359 23.8491 13.2812 23.8742C13.5254 23.898 13.7575 23.9314 13.9778 23.972C14.198 24.0126 14.3895 24.0484 14.5522 24.0818C14.715 24.114 14.8299 24.1378 14.8945 24.1546V23.5198C14.8945 23.1464 14.8538 22.7766 14.7724 22.4115C14.6911 22.0452 14.5439 21.7207 14.3332 21.4356C14.1202 21.1516 13.8317 20.9238 13.4643 20.7532C13.0969 20.5826 12.6206 20.4967 12.0341 20.4967C11.2837 20.4967 10.6266 20.5503 10.0641 20.6553C9.50162 20.7615 9.08153 20.8713 8.80506 20.9846L8.53578 19.1079C8.829 18.9779 9.3185 18.8514 10.0031 18.7297C10.6889 18.6081 11.4297 18.546 12.2292 18.546C13.1424 18.546 13.9119 18.6653 14.5403 18.9004C15.1674 19.1366 15.6737 19.4694 16.0566 19.9001C16.4396 20.3308 16.7125 20.8426 16.8765 21.4356C17.0392 22.0297 17.1206 22.6835 17.1206 23.3982V31.3224ZM48 23.923C48 10.7112 37.2549 0 24 0C10.7451 0 0 10.7112 0 23.923C0 37.1361 10.7451 47.8473 24 47.8473C28.3541 47.8473 32.4341 46.6865 35.9551 44.6654L48 48L44.9756 35.5481C46.8989 32.1062 48 28.1441 48 23.923Z" fill="white"/>
<g clip-path="url(#clip1_450_4719)">
<path d="M73.978 40.023C71.982 40.023 70.2826 39.7193 68.8798 39.1119C67.5561 38.5635 66.3867 37.6995 65.4738 36.5953C64.5883 35.4904 63.9452 34.2116 63.5863 32.842C63.186 31.3347 62.989 29.7806 63.0005 28.2211V9.30347H65.9509V27.8307C65.9221 29.2771 66.1198 30.7191 66.5367 32.1044C66.8675 33.1971 67.4216 34.2092 68.1639 35.0766C68.8488 35.8516 69.7126 36.4474 70.6803 36.8123C72.8144 37.5644 75.1415 37.5644 77.2755 36.8123C78.2432 36.4472 79.107 35.8514 79.7921 35.0766C80.5344 34.2092 81.0884 33.1971 81.4192 32.1044C81.8361 30.7191 82.0338 29.2771 82.005 27.8307V9.30347H84.9554V28.2211C84.9668 29.7806 84.7699 31.3347 84.3698 32.842C84.0108 34.2116 83.3677 35.4904 82.4823 36.5953C81.5691 37.6993 80.3998 38.5633 79.0763 39.1119C77.6729 39.7192 75.9735 40.023 73.978 40.023Z" fill="white"/>
<path d="M94.6351 18.2851C95.1266 17.9095 95.9149 17.5118 96.9999 17.092C98.2303 16.6479 99.532 16.4345 100.84 16.4627C102.325 16.4352 103.798 16.7313 105.157 17.3305C106.39 17.8897 107.48 18.7203 108.346 19.7604C109.242 20.8547 109.913 22.1155 110.32 23.4701C110.782 24.9961 111.009 26.5835 110.993 28.1778C111.019 29.8468 110.747 31.5071 110.19 33.0808C109.701 34.4527 108.933 35.7084 107.934 36.7688C106.959 37.7853 105.775 38.5775 104.463 39.0902C103.031 39.6411 101.506 39.9135 99.9721 39.8928C97.9761 39.8928 96.3273 39.7627 95.0257 39.5025C93.9386 39.298 92.866 39.0226 91.8149 38.6779V6.2229L94.6351 5.70221V18.2851ZM94.6351 36.7255C95.2668 36.9139 95.9124 37.0517 96.5659 37.1376C97.6806 37.2842 98.8045 37.3494 99.9286 37.3329C102.358 37.3329 104.311 36.5447 105.786 34.9683C107.261 33.3919 107.999 31.1284 107.999 28.1778C108.005 26.988 107.874 25.8014 107.609 24.6416C107.38 23.6007 106.953 22.6137 106.35 21.7344C105.762 20.9019 104.98 20.2246 104.072 19.7604C103.132 19.2689 101.968 19.023 100.579 19.0227C99.938 19.0202 99.2981 19.0857 98.6704 19.218C98.094 19.3392 97.5282 19.506 96.9782 19.7169C96.5058 19.8966 96.0487 20.1142 95.6115 20.3677C95.2731 20.5647 94.9471 20.782 94.6351 21.0186V36.7255Z" fill="white"/>
<path d="M133.733 38.5911C132.894 38.823 131.765 39.0834 130.348 39.3722C128.631 39.6875 126.887 39.8328 125.142 39.806C123.464 39.806 122.061 39.5601 120.933 39.0684C119.859 38.6185 118.918 37.9016 118.199 36.9858C117.473 36.0208 116.963 34.911 116.703 33.7316C116.387 32.3513 116.234 30.9387 116.247 29.5228V16.9399H119.067V28.6116C119.046 29.965 119.162 31.3171 119.414 32.6469C119.646 33.7465 120.022 34.636 120.543 35.3153C121.058 35.9916 121.759 36.504 122.56 36.7905C123.531 37.1175 124.552 37.2717 125.576 37.2461C126.736 37.2574 127.896 37.1849 129.047 37.0291C130.03 36.8847 130.652 36.7546 130.913 36.6388V16.9399H133.733L133.733 38.5911Z" fill="white"/>
<path d="M140.397 17.7211C141.235 17.4899 142.363 17.2295 143.781 16.94C145.498 16.6246 147.242 16.4793 148.988 16.5061C150.694 16.5061 152.119 16.752 153.262 17.2437C154.344 17.6893 155.288 18.4157 155.995 19.3481C156.704 20.3258 157.2 21.442 157.449 22.624C157.749 24.0064 157.895 25.418 157.883 26.8327V39.3722H155.062V27.744C155.082 26.3916 154.974 25.0404 154.737 23.7087C154.575 22.7439 154.205 21.8259 153.652 21.0186C153.153 20.3298 152.457 19.808 151.656 19.5216C150.832 19.218 149.798 19.0661 148.554 19.066C147.4 19.0545 146.248 19.127 145.104 19.283C144.135 19.428 143.506 19.5582 143.217 19.6736V39.3722H140.397V17.7211Z" fill="white"/>
<path d="M167.007 16.9399H175.945V19.3263H167.007V31.2585C166.981 32.3023 167.091 33.345 167.332 34.3607C167.49 35.0418 167.81 35.6746 168.265 36.2047C168.66 36.6333 169.174 36.9353 169.74 37.0726C170.365 37.2228 171.007 37.2956 171.649 37.2894C172.835 37.2894 173.79 37.1521 174.513 36.8773C175.095 36.6667 175.661 36.4128 176.205 36.118L176.899 38.461C176.494 38.7213 175.785 39.0178 174.773 39.3505C173.708 39.691 172.595 39.8595 171.476 39.8495C170.087 39.8495 168.923 39.6687 167.983 39.3072C167.091 38.9809 166.309 38.4094 165.727 37.6584C165.127 36.8411 164.72 35.8994 164.534 34.9031C164.285 33.6167 164.168 32.3081 164.187 30.998V10.3448L167.007 9.82416V16.9399Z" fill="white"/>
<path d="M197.813 38.5911C196.973 38.823 195.845 39.0834 194.428 39.3722C192.711 39.6875 190.967 39.8328 189.222 39.806C187.544 39.806 186.141 39.5601 185.013 39.0684C183.939 38.6185 182.998 37.9016 182.279 36.9858C181.553 36.0208 181.043 34.911 180.783 33.7316C180.467 32.3513 180.314 30.9387 180.327 29.5228V16.9399H183.147V28.6116C183.125 29.965 183.242 31.3171 183.494 32.6469C183.725 33.7465 184.101 34.636 184.622 35.3153C185.138 35.9916 185.839 36.504 186.64 36.7905C187.611 37.1175 188.631 37.2717 189.656 37.2461C190.816 37.2574 191.976 37.1849 193.127 37.0291C194.11 36.8847 194.732 36.7546 194.992 36.6388V16.9399H197.813V38.5911Z" fill="white"/>
</g>
</g>
<defs>
<clipPath id="clip0_450_4719">
<rect width="198" height="48" fill="white"/>
</clipPath>
<clipPath id="clip1_450_4719">
<rect width="135" height="36" fill="white" transform="translate(63 5)"/>
</clipPath>
</defs>
</svg>
